<svg xmlns="http://www.w3.org/2000/svg" width="457" height="406" fill="none"><path fill="#0E0A06" d="M279.867 292.668c-5.907-1.001-11.693-1.978-17.476-2.967a578 578 0 0 1-23.388-4.489c-.988-.21-1.855-.188-2.789.305-17.828 9.425-35.914 18.228-54.164 26.646-.342.157-.764.197-1.073.77.433.641.926 1.338 1.385 2.059 2.022 3.198 2.914 6.668 2.181 10.55-.312 1.645-.425 3.34-.833 4.951-1.17 4.601-4.192 7.269-8.171 8.782-3.472 1.319-7.049 1.513-10.679.909-4.478-.746-8.573-2.487-12.212-5.429-1.983-1.603-3.671-3.507-4.942-5.839-.717-1.316-.757-1.297-2.099-.761-5.857 2.335-11.708 4.692-17.57 7.013-5.984 2.369-12.039 4.523-18.128 6.544-1.037.345-1.81.891-2.495 1.796-3.826 5.041-7.998 9.706-12.787 13.687-1.949 1.621-3.985 3.091-6.225 4.197-1.235.61-2.507 1.085-3.88 1.183-3.039.222-4.766-1.417-4.94-4.705-.093-1.772.174-3.485.59-5.189a37.4 37.4 0 0 1 4.027-9.958c1.124-1.932 1.085-3.368-.167-5.377-10.651-17.079-19.686-35.148-27.35-54.026-.274-.678-.436-1.439-.931-1.972-.479-.031-.547.379-.683.659-4.573 9.386-8.247 19.135-10.073 29.623-.479 2.755-.796 5.534-.878 8.341-.077 2.548-.221 2.647-2.459 1.627-5.754-2.622-11.506-5.26-17.261-7.885-7.12-3.248-14.24-6.489-21.36-9.734a27 27 0 0 1-.71-.329c-1.59-.777-1.762-1.069-1.538-2.866.52-4.163 1.09-8.319 1.872-12.436 3.058-16.114 8.252-31.326 16.213-45.371 4.656-8.214 10.102-15.742 16.557-22.369 1.065-1.094 1.365-2.025 1.028-3.621a345 345 0 0 1-5.693-36.639c-1.373-13.609-1.903-27.253-1.385-40.925.488-12.898 1.872-25.694 4.628-38.268.348-1.593.074-2.776-.623-4.13-2.617-5.077-4.834-10.352-6.168-16.025-.547-2.326-.81-4.677-.723-7.074.046-1.273.252-2.505.757-3.664.929-2.138 2.466-3.352 4.624-3.633 2.235-.292 4.356.244 6.426 1.082 3.099 1.254 5.928 3.053 8.644 5.081a78 78 0 0 1 9.46 8.316c.795.823 1.466 1.045 2.517.589 9.26-4.024 18.638-7.706 28.085-11.173.96-.351 1.207-1.01 1.504-1.916 2.883-8.739 8.157-14.95 16.316-18.063 1.98-.754 4.024-.952 6.095-.788 2.823.225 5.199 1.485 7.097 3.787 1.034 1.25 2.138 2.446 3.053 3.793.702 1.035 1.416 1.109 2.461.782a1015 1015 0 0 1 15.251-4.594 788 788 0 0 1 45.041-11.745c.252-.06.498-.204.748-.204 1.149-.006 1.481-.78 1.654-1.855.764-4.76 1.566-9.511 2.359-14.266q.932-5.578 1.88-11.157c.346-2.03.357-1.99 2.3-2.342 4.661-.847 9.36-1.05 14.061-.807 18.972.97 37.004 5.842 53.818 15.622.734.425 1.408.524 2.206.422 5.115-.65 10.235-1.257 15.353-1.88 6.653-.81 13.322-1.432 19.994-2.04 9.95-.902 19.913-1.521 29.885-1.919 7.272-.29 14.556-.333 21.835-.41 1.255-.012 2.121-.342 2.959-1.436 3.39-4.415 7.001-8.609 10.983-12.41 1.892-1.806 3.869-3.492 6.067-4.841 1.291-.795 2.631-1.452 4.112-1.757 2.883-.597 5.058.515 6.383 3.371 1.071 2.302 1.388 4.804 1.496 7.33a65.7 65.7 0 0 1-.626 12.153c-.207 1.442.008 2.68.631 4.008 6.421 13.709 11.144 28.135 15.129 42.863.745 2.752 1.47 5.507 2.212 8.258.014.055.094.092.249.243.394-.172.853-.37 1.306-.576 11.054-5.013 22.523-8.304 34.413-9.9 4.927-.66 9.872-.98 14.831-1.106 2.11-.052 2.084 0 2.28 2.299.858 10.041 1.739 20.083 2.603 30.125.509 5.928 1.008 11.856 1.489 17.788.105 1.291-.161 1.599-1.478 1.463-1.923-.194-3.84-.4-5.775-.465-9.538-.308-18.87 1.239-28.105 3.654-.054.016-.097.09-.238.231.184.762.881 1.076 1.345 1.572 2.498 2.668 4.381 5.688 4.769 9.589.043.416.077.838.071 1.257-.037 3.004-2.656 10.097-4.565 12.285-2.356 2.699-5.347 4.073-8.647 4.739-2.591.52-2.594.496-2.356 3.29 1.042 12.143 1.674 24.311 1.824 36.51.028 2.403-.388 1.845 1.781 2.798 10.323 4.523 20.023 10.245 28.871 17.636 1.331 1.113 1.62 2.136 1.195 3.907-3.656 15.237-7.216 30.505-10.805 45.76-.096.406-.144.832-.277 1.223-.371 1.115-.838 1.288-1.725.499-1.3-1.152-2.6-2.298-3.993-3.312-4.891-3.562-10.173-6.292-15.633-8.637-.892-.382-1.759-.869-2.832-1.054-.623 2.148-.802 4.373-1.207 6.545-1.73 9.281-3.9 18.416-7.329 27.155-1.113 2.838-2.334 5.617-3.826 8.239-.431.758-.419 1.309.039 2.071 1.45 2.403 2.702 4.926 3.526 7.681.445 1.482.72 2.983.581 4.542-.179 2.015-1.255 3.321-3.059 3.83-1.563.437-3.081.12-4.574-.324-3.962-1.177-7.607-3.201-10.818-5.891-2.77-2.317-5.591-3.014-9.051-2.98-12.756.121-25.495-.613-38.208-1.781-1.603-.147-3.212-.243-4.809-.453-.886-.117-1.226.238-1.492 1.141-5.455 18.456-24.002 39.445-42.813 47.435-2.583 1.097-5.228 1.972-7.978 2.456-.671.117-1.215.018-1.835-.312-14.396-7.663-28.808-15.298-43.215-22.936l-1.385-.743c-.314-.169-.518-.443-.49-.825.037-.506.386-.681.796-.746.255-.04.51-.089.768-.114 6.318-.623 12.183-2.875 17.808-5.928 10.699-5.809 19.841-13.764 27.448-23.8.4-.524.907-.983 1.119-1.904zm102.898-38.469c2.501.817 5.002 1.633 7.63 2.493.583-2.367 1.031-4.625 1.719-6.797.411-1.298-.034-1.901-.912-2.57-3.659-2.773-7.731-4.348-12.093-5.189-1.393-.268-2.501-.098-3.245 1.368-.213.416-.587.734-.887 1.094-.427.299-.824.675-1.288.878-.876.388-1.102.962-.833 1.951.343 1.263.538 2.572.824 3.854.484 2.191.094 2.209 2.436 2.216.699 0 1.399.111 2.098.188 1.518.166 3.036.342 4.551.511zm-10.161-71.435c-.224-7.481-.462-14.962-.651-22.444-.026-.989-.465-1.149-1.198-1.149-2.317-.006-4.625.04-6.925.435-.796.135-1.144.425-1.059 1.331.283 3.059.538 6.122.801 9.185.094 4.532.615 9.028.986 13.536.065.782.535.838 1.082.825 1.926-.037 3.851-.071 5.774-.114 1.17-.024 1.17-.03 1.19-1.605m14.653-40.962c-.765.2-1.419.65-2.09 1.069a70 70 0 0 0-8.488 6.215c-.541.462-1.118 1.273-1.838.857-.804-.469-.51-1.492-.427-2.305.085-.823.17-1.627-.037-2.597-.972.434-1.504 1.251-2.184 1.845-.351.308-.665.718-1.178.536-.614-.218-.612-.813-.657-1.377-.17-2.092-.343-4.184-.53-6.273-.467-5.155-.894-10.313-1.433-15.456-.26-2.48-.229-5.013-.838-7.595-1.804.909-3.345 2.086-5.115 2.718-1.07.382-1.444 1.053-1.416 2.332.085 3.993.196 7.981.402 11.968.238 4.544.253 9.105.561 13.643.165 2.447.162 4.903.397 7.34.342 3.54.376 3.589 3.636 3.115 1.801-.262 3.597-.348 5.392-.166 1.711.172 1.969.551 2.017 2.363q.232 8.613.467 17.227c.037 1.328.074 2.659.15 3.987.057.974-.102 2.154.346 2.856.575.9 1.801.327 2.736.459 3.506.497 7.049.678 10.521 1.449.526.117.889-.037.98-.666.07-.484.175-.967.184-1.451.082-4.557-.241-9.093-.536-13.635-.246-3.771-.521-7.53-1.217-11.246-.207-1.094.342-1.575 1.368-1.31.155 1.036.345 2.065.464 3.103.912 7.931 1.436 15.887 1.175 23.886-.053 1.691-.039 1.732 1.634 2.086 4.552.97 9.035 2.224 13.464 3.707 2.141.717 4.26 1.519 6.384 2.28.393-.761.206-1.467.209-2.142.048-8.06-.442-16.096-.872-24.135-.122-2.259-.119-2.228-2.124-2.607-4.752-.899-9.185-2.687-13.13-5.771-1.688-1.322-3.203-2.841-4.217-4.844-1.161-2.295-1.489-4.775.669-7.105.173-.185.382-.382.26-.881-.897-.878-1.807-1.963-2.639-3.118-.935-1.294-.94-1.288-2.444-.355zm-81.841 191.249c.376-.265.787-.487 1.127-.801 7.723-7.164 14.157-15.468 18.853-25.303.167-.352.413-.734.076-1.254-2.33-.466-4.755-.854-7.128-1.467-1.141-.296-1.739.034-2.404 1.001-2.379 3.461-5.308 6.286-8.751 8.455-3.34 2.105-6.88 3.463-10.808 3.359-6.111-.161-10.246-4.628-10.436-11.281-.065-2.261.181-4.477.855-6.618.303-.968.071-1.371-.878-1.55a53 53 0 0 1-4.896-1.177c-1.074-.311-1.736.003-2.473.934-7.233 9.12-15.791 16.435-25.61 22.003-.453.255-.872.582-1.306.875-.187.049-.385.068-.555.151-4.571 2.301-9.264 4.203-14.251 5.142-.258.05-.476.176-.583.459.153.342.45.481.739.635 13.254 7.019 26.511 14.029 39.754 21.073.985.523 1.934.677 2.979.412 1.818-.459 3.631-.939 5.39-1.639 7.284-2.887 13.718-7.348 19.719-12.611.247-.219.516-.425.589-.798zm93.589-88.53q2.94 1.034 5.876 2.074c9.776 3.463 19.238 7.635 27.488 14.522.088.073.241.055.456.101.162-.564.351-1.134.49-1.719 3.41-14.519 6.789-29.047 10.261-43.547.354-1.485.059-2.268-1.011-3.146-5.982-4.924-12.342-9.164-19.091-12.707-16.571-8.704-34.005-13.69-52.453-14.177-2.037-.055-4.078.151-6.228.244.479 5.074.77 9.897 1.56 14.657-.147.339-.167.653.145.903l.082.807c-.181.626-.062 1.251.011 1.87 1.3 11.228 2.725 22.438 4.574 33.58.312 1.882.312 1.895 2.045 1.987 5.658.299 11.246 1.171 16.783 2.434 3.007.687 6.01 1.411 9.012 2.12zm-17.052-107.615c1.515-.613 2.857-1.59 4.279-2.403.43-.247.722-.549.742-1.116.093-2.736 1.314-5.09 2.172-7.567 1.314-3.79 3.804-6.317 7.191-7.734 6.998-2.93 13.809-1.907 20.357 1.648 1.54.839 2.852 1.063 4.531.614 7.768-2.071 15.644-3.421 23.659-3.615 2.963-.071 5.925-.086 8.87.367.759.117 1.229.025 1.13-1.051-.419-4.529-.781-9.062-1.172-13.594q-.879-10.247-1.762-20.493c-.337-3.904-.702-7.805-.999-11.712-.085-1.118-.459-1.525-1.535-1.491-3.929.126-7.845.363-11.754.82-14.067 1.639-27.559 5.56-40.382 12.096-8.213 4.185-15.817 9.38-22.481 16.133-.904.916-1.456 1.837-1.329 3.257.125 1.39-.073 2.813.057 4.2.348 3.756-1.019 6.705-3.509 9.117-.713.691-.934 1.405-.824 2.385.331 2.918.626 5.842.932 8.766-.009.416-.057.835-.023 1.245.36 4.095.68 8.196 1.13 12.282.201 1.839.113 3.734.601 5.515.702-.006 1.011-.502 1.401-.841a85 85 0 0 1 7.214-5.58c.526-.367 1.172-.579 1.495-1.242zM55.672 277.068c3.075-5.007 5.958-10.153 9.334-14.938 7.145-10.131 15.166-19.267 25.075-26.267.227-.16.394-.348.436-.724-.311-.376-.642-.801-.996-1.202q-13.002-14.698-26.007-29.392c-1.44-1.624-1.136-1.553-3.096-.591-9.44 4.637-17.765 11.04-25.103 18.961-11.49 12.402-19.66 27.112-25.339 43.52-2.66 7.678-4.786 15.526-6.047 23.633-.804 3.398-1.087 6.895-1.628 10.343-.173 1.11.215 1.606 1.147 2.022 5.777 2.582 11.527 5.232 17.287 7.863 6.71 3.063 13.416 6.132 20.125 9.194 1.79.817 1.81.811 1.886-1.195.113-2.881.54-5.71 1.079-8.526 2.045-10.664 5.93-20.552 10.685-30.076.425-.85 1.046-1.608 1.164-2.622zm11.167 25.177v.006c-.057.53.223.946.436 1.368 1.778 3.574 3.542 7.158 5.372 10.701a326 326 0 0 0 13.866 24.274c.609.967.725 1.645.048 2.77a44.8 44.8 0 0 0-4.789 11.206c-.484 1.757-.793 3.541-.654 5.383.178 2.37 1.555 3.513 3.704 3.038 1.139-.249 2.226-.687 3.274-1.244 1.801-.956 3.478-2.13 5.08-3.433 5.141-4.184 9.525-9.213 13.62-14.556.516-.674 1.054-1.152 1.844-1.402 9.768-3.109 19.34-6.846 28.884-10.67 2.476-.992 4.954-1.984 7.412-3.029 1.354-.573 1.388-.631 1.068-2.175-.247-1.183-.363-2.366-.201-3.547.277-2.005.648-3.996.974-5.996.41-2.517 1.546-4.581 3.291-6.264 2.928-2.822 6.451-4.061 10.263-4.283 6.828-.4 12.991 1.67 18.352 6.329.725.629 1.266.66 2.067.287 10.363-4.819 20.7-9.7 30.961-14.769 13.254-6.55 26.403-13.338 39.368-20.542.403-.222.799-.462 1.218-.641.479-.203.921-.099 1.116.465.167.49-.167.783-.504 1.002-.388.249-.796.462-1.198.681-3.342 1.821-6.689 3.626-10.02 5.469-.481.265-1.104.345-1.376.986.43.413.957.428 1.461.527 3.291.644 6.576 1.331 9.875 1.938 6.469 1.189 12.935 2.409 19.423 3.472 6.868 1.125 13.755 2.129 20.646 3.103 6.952.983 13.911 1.932 20.878 2.767 6.584.786 13.183 1.494 19.785 2.068 7.697.665 15.403 1.22 23.112 1.679 4.82.286 9.655.345 14.484.447 2.769.058 5.542.043 8.312-.022 1.093-.025 1.948.324 2.829 1.026 3.591 2.862 7.321 5.491 11.518 7.213 1.507.619 3.036 1.205 4.684 1.106 2.037-.123 2.756-1.016 2.77-3.364.224-1.988-.569-3.713-1.269-5.426-1.475-3.605-3.517-6.844-5.709-9.971-.309-.441-.711-.823-.805-1.411-.048-.302.037-.574.253-.746.218-.176.518-.197.716-.009.334.317.62.696.918 1.06.628.767 1.019 1.768 1.897 2.369 1.006-1.377 1.654-2.906 2.328-4.412 3.92-8.748 6.398-18.016 8.224-27.497.853-4.431-1.631-10.054-5.188-12.279-.439-.274-.946-.431-1.436-.588-1.172-.373-2.35-.731-3.534-1.063-1.762-.496-1.765-.484-2.235 1.389-.626 2.499-1.24 5.001-1.875 7.5-.223.878-.447 1.759-.744 2.607-.468 1.34-.771 1.473-2.031 1.069-.739-.237-1.481-.465-2.22-.696-3.73-1.609-7.61-2.385-11.615-2.419-1.124-.009-1.212.129-.914 1.356 1.013 4.181 2.126 8.328 3.746 12.294.496 1.214 1.062 2.394 1.847 3.42 1.209 1.584 2.147 1.5 3.132-.256.878-1.565 1.345-3.312 1.784-5.062.17-.678.227-1.39.895-1.751.53.265.841.715.7 1.341-.564 2.52-1.139 5.056-2.659 7.145-1.295 1.775-2.784 1.861-4.317.336-1.064-1.06-1.761-2.4-2.381-3.796-1.861-4.184-3.065-8.618-4.127-13.095-3.676-15.487-5.814-31.275-7.726-47.106-1.399-11.595-2.506-23.229-3.401-34.883a1260 1260 0 0 1-1.96-30.596c-.422-8.042-.603-16.1-.872-24.148-.099-2.939-.244-5.885-.173-8.824.043-1.723-.694-2.515-2.005-3.094-3.741-1.658-7.655-2.372-11.66-2.607-4.185-.243-8.363-.172-12.529.401-.889.123-1.804.151-2.699.086-1.147-.083-1.744-.773-1.857-2-.04-.412.031-.838.031-1.257.003-2.93 0-5.86 0-8.957l-2.807.647c-1.614.37-1.906.182-1.906-1.522-.011-9.81.023-19.618-.161-29.429-.065-3.561.082-7.145.107-10.716.014-2.012.009-2.034 1.821-2.502 4.656-1.196 9.392-1.756 14.161-1.867 7.122-.164 14.143.653 20.943 3.096.937.336 1.274.09 1.43-.915a38 38 0 0 1 1.58-6.489c.428-1.25.927-2.471 1.805-3.445 1.203-1.337 2.421-1.436 3.772-.28.351.299.674.656.954 1.038 1.382 1.89 2.161 4.123 2.999 6.32.156.404-.141.64-.339.906-.958.08-1.147-.758-1.399-1.451-.595-1.633-1.292-3.214-2.252-4.622-1.252-1.837-2.325-1.754-3.365.203-.32.604-.614 1.236-.829 1.889-.652 1.975-1.139 4.002-1.513 6.064-.311 1.722-.342 1.75 1.156 2.526 2.342 1.217 4.506 2.693 6.253 4.82 1.467 1.783 2.351 3.83 2.362 6.251.04 10.144.062 20.29.102 30.433 0 .453-.164.971.394 1.526 2.277-2.416 4.874-4.422 7.298-6.662 5.109-3.654 10.3-7.155 15.902-9.872.841-.41.711-.992.518-1.713-1.249-4.632-2.421-9.29-3.738-13.897-3.294-11.508-7.191-22.764-12.011-33.628-.289-.65-.453-1.424-1.198-1.978-.229 1.023-.393 1.885-.62 2.733-.263.989-.773 1.004-1.396.332.425-2.967.861-5.93 1.277-8.901.592-4.234.615-8.498.459-12.766-.057-1.54-.332-3.072-.853-4.501-.439-1.211-.858-2.52-2.175-3.02-.988-.949-2.121-.841-3.282-.53-2.365.638-4.361 2.046-6.279 3.599-4.047 3.281-7.578 7.173-10.929 11.253-2.186 2.665-4.268 5.432-6.423 8.128-.411.514-.787 1.664-1.594.887-.723-.693.158-1.337.521-1.95.257-.438.832-.73.58-1.448-.255-.016-.51-.05-.764-.05-13.594 0-27.166.567-40.729 1.54-9.314.67-18.606 1.548-27.893 2.561-10.056 1.097-20.082 2.44-30.091 3.944a832 832 0 0 0-44.763 7.996c-24.79 5.124-49.358 11.287-73.691 18.558-2.73.817-5.452 1.661-8.176 2.505-.584.18-1.113.383-.765 1.291.895 2.342.748 4.807.629 7.257-.034.705 0 1.38.136 2.08.433 2.264.679 4.523.308 6.864-1.577 9.965-6.672 16.818-15.318 20.426-3.594 1.5-7.327 1.575-10.918-.176-5.126-2.495-7.378-7.126-7.822-12.984-.065-.856-.153-1.62-.606-2.366-1.433-2.36-1.926-5.004-1.867-7.805.015-.666.28-1.368-.215-2.175-9.513 3.506-18.972 7.228-28.304 11.27.162.91.76 1.18 1.082 1.68.233.357.428.73.088 1.13-.405.482-.81.297-1.175-.064-.428-.425-.833-.878-1.25-1.316-5.057-5.333-10.416-10.245-16.669-13.877-2.342-1.362-4.778-2.48-7.451-2.734-1.713-.163-3.356.084-4.407 1.874-.84.499-.903 1.466-1.135 2.308-.655 2.36-.241 4.708.229 7.016 1.413 6.95 4.228 13.261 7.593 19.31-.034.277-.045.56-.108.832-2.872 12.334-4.339 24.89-4.93 37.569-.326 6.994-.431 13.995-.19 21.011.246 7.216.665 14.411 1.37 21.581a337 337 0 0 0 5.65 36.639c.094.44-.017 1.016.655 1.22.354-.324.747-.678 1.135-1.035 6.285-5.781 13.147-10.569 20.669-14.214 2.115-1.026 2.484-.943 4.05.826 7.508 8.479 15.01 16.965 22.515 25.451 1.654 1.867 3.319 3.722 4.945 5.617.926 1.081.852 1.722-.196 2.588-.306.252-.654.447-.971.687-1.736 1.331-3.5 2.625-5.194 4.021-1.54 1.269-1.39 1.137-.221 2.45a224 224 0 0 1 4.248 4.886c1 1.196.954 1.495-.198 2.518-9.332 8.276-16.475 18.466-22.003 30.032-1.753 3.667-3.192 7.488-3.976 11.574-.184.955-.173 1.759.246 2.609.972 1.966 1.906 3.954 2.852 5.932.08.32.142.656.485.782zM325.538 92.798c.456.26.894.04 1.311-.052 3.412-.761 6.856-1.205 10.331-1.457 7.981-.577 15.826.206 23.47 2.813 4.092 1.395 7.887 3.441 10.872 6.945.051.061.218.009.484.009 0-3.762.012-7.524-.005-11.287-.006-1.599-.029-1.59-1.47-1.55-5.744.16-10.547-2.15-14.506-6.608a14.1 14.1 0 0 1-2.849-4.958c-1.799-5.405.532-10.458 5.59-12.076 2.464-.788 4.956-.69 7.457-.2 1.909.373 3.634 1.325 5.475 2.092.628-3.605-.694-6.233-3.036-8.4-2.495-2.307-5.412-3.78-8.502-4.834-10.691-3.645-21.544-3.777-32.464-1.522-2.787.576-2.478 0-2.461 3.313.039 8.125.13 16.25.169 24.375.017 3.784-.045 7.57-.051 11.355 0 .684-.161 1.398.182 2.049zM187.539 40.676c.478 0 .674.034.861-.006 6.315-1.337 12.628-2.687 18.944-4.02.744-.158 1.237-.639 1.738-1.215 5.322-6.144 11.768-7.345 18.76-3.472.737.406 1.379.499 2.195.357 4.701-.826 9.417-1.54 14.121-2.35 2.665-.46 5.372-.694 7.955-1.606 1.011-.358 2.382-.607 2.472-1.966.077-1.15-1.183-1.538-2.007-2.021-3.753-2.216-7.803-3.63-11.85-5.023-11.912-4.095-24.084-6.569-36.61-6.683-3.543-.03-7.078.182-10.595.721-1.133.173-1.614.712-1.804 1.95-.674 4.419-1.461 8.819-2.192 13.228-.66 3.978-1.306 7.959-1.988 12.112zM411.126 145.5c3.279.04 6.406-.573 9.312-2.302 3.967-2.363 6.766-7.349 4.05-13.406-.57-1.27-1.261-2.45-2.158-3.464-5.707-6.461-12.745-8.929-20.833-8.079-2.725.287-5.274 1.251-7.497 3.066-3.56 2.906-4.664 7.296-2.951 11.755a14.9 14.9 0 0 0 3.005 4.841c4.735 5.077 10.535 7.321 17.072 7.586zM163.364 305.991c-4.687-.015-7.881.626-10.75 2.592-4.484 3.072-5.721 8.464-3.161 13.517 1.297 2.561 3.053 4.671 5.248 6.335 5.336 4.049 11.252 5.71 17.717 4.93 2.527-.305 4.886-1.202 6.99-2.798 3.345-2.542 4.639-6.658 3.449-10.901a14.3 14.3 0 0 0-3.271-5.864c-4.842-5.281-10.813-7.595-16.219-7.811zM119.048 62.186c0-.413.006-.693 0-.97-.105-5.318-3.195-9.084-8.04-9.848-1.629-.256-3.229-.074-4.77.428-8.116 2.65-13.353 8.591-16.25 17.107-.884 2.595-1.127 5.3-.745 8.058.558 4.036 3.079 7.148 6.675 8.054 1.835.462 3.73.478 5.548-.07 8.48-2.558 13.883-8.659 16.803-17.533.566-1.72.875-3.51.782-5.226zM314.94 303.65c-.657-.167-1.258-.355-1.872-.475-5.12-1.004-10.244-1.981-15.361-3.001-2.589-.514-5.163-1.125-7.752-1.651-1.305-.265-1.385-.188-1.784 1.174-.473 1.605-.801 3.269-.81 4.939-.028 5.33 2.13 9.277 6.848 10.497 1.898.49 3.849.438 5.744-.043 6.156-1.559 10.889-5.469 14.758-10.765.107-.148.13-.373.229-.681zm57.044-226.057h-.131c0-2.518-.059-5.038.026-7.553.04-1.167-.36-1.793-1.283-2.277-1.396-.733-2.815-1.377-4.325-1.756-2.891-.73-5.746-.715-8.47.743-3.022 1.614-4.35 4.896-3.475 8.427a12.5 12.5 0 0 0 1.855 4.12c2.415 3.494 5.65 5.647 9.493 6.763 1.679.487 3.378.748 5.14.52.895-.117 1.204-.456 1.184-1.432-.051-2.518-.017-5.035-.017-7.552zm-11.085 18.604c-.292.471-.196.974-.196 1.448.017 4.69.049 9.376.077 14.066.011 1.75-.011 3.5.054 5.247.042 1.131.274 1.31 1.181.891 3.039-1.408 5.913-3.134 8.074-5.935 2.736-3.54 2.572-7.185-.405-10.494-2.305-2.56-5.188-4.077-8.244-5.257-.162-.061-.371.022-.541.034M147.462 322.026c-.017 3.762 1.467 6.757 3.821 9.182 6.171 6.36 13.52 8.674 21.877 7.072 2.11-.404 4.064-1.353 5.783-2.78 1.332-1.106 2.36-2.452 2.657-4.347-5.792 4.541-12.124 4.957-18.703 3.155-6.619-1.815-12.014-5.58-15.438-12.282zM120.744 59.903c.261 7.657-2.554 13.937-7.312 19.243-4.752 5.302-10.402 8.531-17.514 7.712.116.705.518.841.83 1.029 2.16 1.322 4.48 1.664 6.91 1.239 8.638-1.507 17.024-10.76 18.443-20.312.464-3.121.303-6.116-1.357-8.91m268.088 72.23c-.572 2.348-.196 4.542.756 6.662 1.096 2.446 2.724 4.412 4.695 6.03 5.322 4.366 11.346 6.135 17.95 5.451 3.056-.318 5.902-1.405 8.292-3.602.598-.552 1.309-1.07 1.448-2.077-.737-.237-1.19.268-1.68.521-.872.453-1.764.835-2.687 1.143-9.154 3.032-24.37-1.387-28.771-14.128zm-162.683-99.15c-5.364-2.94-11.589-1.695-15.22 2.902 5.044-.961 9.946-1.895 15.22-2.902M375.342 241.77c-.826-.077-1.39-.126-1.951-.181-1.58-.151-1.685-.047-1.311 1.568.093.407.02 1.02.691 1.106 1.003-.437 1.73-1.26 2.571-2.496zm-193.436 88.965-.074-.08-.022.123.099-.043z"/><path fill="#020202" d="M245.945 381.832c9.473-.15 18.938.324 28.405.478 5.919.096 11.839.425 17.749.829 10.071.684 20.139 1.482 30.148 2.933 4.712.684 9.416 1.461 14.01 2.853 1.611.49 3.22 1.017 4.642 2.016 1.852 1.3 1.855 2.751.002 4.045-1.699 1.19-3.627 1.781-5.553 2.339-4.727 1.374-9.547 2.228-14.39 2.936-8.222 1.202-16.471 2.052-24.75 2.669-6.805.505-13.613.884-20.425 1.257-18.476 1.017-36.964.884-55.449.773-6.89-.043-13.781-.262-20.668-.567-6.814-.302-13.628-.684-20.425-1.263-9.482-.807-18.961-1.71-28.321-3.676-2.461-.518-4.908-1.115-7.278-2.031-.972-.375-1.935-.782-2.784-1.426-1.654-1.254-1.646-2.48.014-3.787.895-.706 1.917-1.143 2.948-1.537 3.163-1.205 6.434-1.96 9.725-2.595 7.219-1.393 14.495-2.308 21.796-3.032 7.176-.712 14.361-1.22 21.552-1.698 16.336-1.087 32.691-1.287 49.046-1.512z"/><path fill="#FA420F" d="M29.317 70.027c1.05-1.788 2.693-2.034 4.407-1.874 2.673.253 5.109 1.374 7.45 2.733 6.254 3.633 11.61 8.544 16.67 13.878.417.438.822.89 1.25 1.316.365.363.767.545 1.175.064.337-.4.141-.776-.088-1.13-.323-.5-.92-.77-1.082-1.68 9.329-4.042 18.788-7.764 28.304-11.27.495.807.23 1.509.215 2.175-.057 2.8.433 5.444 1.866 7.804.454.746.541 1.513.606 2.367.442 5.857 2.694 10.485 7.823 12.984 3.591 1.75 7.323 1.673 10.917.176 8.647-3.608 13.742-10.461 15.319-20.426.371-2.342.125-4.6-.309-6.865a8.7 8.7 0 0 1-.136-2.08c.119-2.452.267-4.914-.628-7.256-.349-.909.184-1.11.764-1.291 2.725-.844 5.446-1.688 8.177-2.505 24.333-7.275 48.901-13.437 73.69-18.558a831 831 0 0 1 44.764-7.996c10.009-1.507 20.037-2.847 30.091-3.944 9.286-1.014 18.581-1.892 27.893-2.56 13.563-.974 27.137-1.541 40.728-1.541.255 0 .51.03.765.05.252.717-.326 1.01-.581 1.447-.362.613-1.243 1.257-.521 1.95.807.777 1.184-.375 1.595-.887 2.155-2.696 4.236-5.463 6.423-8.128 3.35-4.082 6.879-7.971 10.929-11.253 1.917-1.556 3.914-2.964 6.278-3.598 1.162-.312 2.294-.42 3.283.53-.221 1.272.569 2.443.306 3.728-.643 3.13-1.306 6.246-2.371 9.253-1.113 3.136-1.886 6.356-1.858 9.773.023 2.854 1.697 5.993 5.217 6.428.623.672 1.133.656 1.396-.333.227-.844.391-1.71.621-2.733.747.555.911 1.331 1.197 1.978 4.824 10.862 8.718 22.12 12.011 33.629 1.32 4.606 2.49 9.265 3.739 13.896.195.721.325 1.303-.519 1.713-5.599 2.715-10.79 6.218-15.902 9.872-.249-1.364-.546-2.717-.742-4.091-1.167-8.187-2.823-16.266-4.568-24.324-.909-4.202-1.929-8.38-2.9-12.568.196-.265.493-.5.34-.906-.838-2.197-1.62-4.43-2.999-6.32a6 6 0 0 0-.955-1.038c-1.351-1.152-2.568-1.057-3.772.28-.878.974-1.376 2.191-1.804 3.445a38 38 0 0 0-1.58 6.49c-.156 1.004-.496 1.25-1.43.915-6.8-2.444-13.824-3.26-20.944-3.097-4.769.11-9.504.669-14.16 1.867-1.813.465-1.807.487-1.821 2.502-.026 3.574-.176 7.155-.108 10.717.184 9.81.15 19.62.162 29.428 0 1.701.294 1.892 1.906 1.523.872-.2 1.744-.401 2.806-.648v8.958c0 .419-.071.844-.031 1.257.113 1.226.711 1.916 1.858 1.999.895.065 1.81.037 2.699-.086 4.166-.576 8.343-.644 12.529-.4 4.005.231 7.919.949 11.66 2.606 1.308.58 2.047 1.372 2.005 3.094-.074 2.936.073 5.882.173 8.825.269 8.051.447 16.108.872 24.147a1280 1280 0 0 0 1.96 30.597c.895 11.653 2.002 23.284 3.401 34.882 1.909 15.832 4.05 31.62 7.726 47.106 1.062 4.477 2.268 8.911 4.126 13.095.62 1.396 1.314 2.736 2.382 3.796 1.532 1.525 3.022 1.436 4.316-.336 1.521-2.089 2.096-4.621 2.659-7.145.139-.625-.17-1.075-.699-1.34.04-.342.065-.691.116-1.029.34-2.182 1.037-4.302 1.011-6.551.742.231 1.481.459 2.22.696 1.258.404 1.564.271 2.031-1.069.295-.85.521-1.732.745-2.607.634-2.495 1.249-5 1.875-7.499.467-1.874.473-1.883 2.234-1.39q1.776.501 3.535 1.063c.49.157.999.314 1.435.589 3.558 2.224 6.041 7.847 5.189 12.278-1.827 9.481-4.302 18.753-8.225 27.497-.674 1.504-1.322 3.035-2.327 4.412-.878-.6-1.269-1.602-1.898-2.369-.297-.364-.583-.743-.918-1.06-.198-.188-.498-.166-.716.009-.215.173-.3.444-.252.746.093.588.495.97.804 1.411 2.192 3.128 4.234 6.366 5.71 9.971.702 1.713 1.492 3.439 1.268 5.426-1.934.82-3.814.595-5.55-.545a23.7 23.7 0 0 1-3.988-3.285c-5.316-5.445-9.196-12.02-12.651-18.913a129 129 0 0 1-7.519-18.388c-1.504-4.684-2.71-9.441-3.569-14.322-.266-1.513-.121-3.069-.608-4.542-.507-1.531-.915-1.854-2.396-1.842a3.17 3.17 0 0 0-1.657.484c-1.011.613-2.002 1.263-3.025 1.848-6.664 3.83-13.497 7.195-20.787 9.41-6.891 2.096-13.914 3.128-21.043 3.396-2.177.083-4.355-.173-6.53-.299-2.83-.166-5.645-.502-8.392-1.066-7.915-1.624-15.542-4.286-22.778-8.215-4.203-2.283-8.174-5.025-12.422-7.222-4.874-2.517-9.915-4.08-15.35-4.304-1.603-.065-3.171.169-4.752.07-1.756-.111-3.469.231-5.16.57-6.397 1.276-12.537 3.528-18.595 6.058-8.882 3.71-17.548 7.977-26.163 12.353a913 913 0 0 0-19.827 10.371c-6.633 3.574-13.26 7.158-19.816 10.898-9.006 5.14-18.106 10.088-27.197 15.046-7.935 4.326-15.811 8.785-24.027 12.482a49.2 49.2 0 0 1-15.823 4.147c-3.532.321-7.058-.08-10.527-.881-4.458-1.029-8.59-2.844-12.07-6.156-.3-.284-.604-.524-1.023-.512l-.002-.006c.017-.391-.088-.693-.485-.782-.948-1.978-1.883-3.966-2.852-5.932-.422-.85-.43-1.657-.246-2.61.784-4.085 2.223-7.903 3.976-11.573 5.528-11.566 12.668-21.753 22.003-30.032 1.152-1.023 1.2-1.322.198-2.518a217 217 0 0 0-4.248-4.886c-1.17-1.316-1.32-1.181.22-2.45 1.694-1.396 3.456-2.687 5.195-4.021.314-.243.662-.434.971-.687 1.048-.866 1.122-1.507.195-2.588-1.625-1.898-3.293-3.75-4.944-5.617q-11.256-12.728-22.515-25.451c-1.567-1.769-1.935-1.852-4.05-.826-7.522 3.645-14.384 8.436-20.669 14.214-.388.357-.781.711-1.135 1.035-.672-.207-.561-.78-.655-1.22a337 337 0 0 1-5.65-36.639c-.705-7.17-1.124-14.368-1.37-21.581-.241-7.016-.136-14.017.19-21.011.588-12.679 2.058-25.238 4.93-37.57.062-.27.074-.554.108-.831.255-.783.475-1.578.773-2.339.756-1.938.558-3.765-.442-5.534-.937-1.657-1.92-3.29-2.772-5-2.453-4.915-4.77-9.891-4.246-15.761zm44.308 84.983c.05.668.088 1.297.15 1.922.068.675 0 1.624.9 1.52.918-.108.64-1.073.573-1.707-.233-2.191-.088-4.36.52-6.434 1.926-6.557 5.175-11.724 11.989-12.954l.19-.037c.456-.104.654-.443.597-.912-.056-.489-.394-.708-.821-.696-.382.012-.765.089-1.144.16-2.207.422-4.152 1.473-5.857 3.026-4.614 4.206-6.8 9.687-7.103 16.109zm158.48-30.849c-3.098-.047-5.412.437-7.584 1.617-.516.281-1.167.595-.85 1.368.334.817.949.459 1.473.148 1.198-.715 2.484-1.118 3.832-1.334 3.429-.552 6.663.136 9.711 1.861 2.888 1.636 5.12 3.959 6.196 7.417.15.483.445.933.994.736.544-.194.53-.73.408-1.229-.28-1.165-.781-2.222-1.427-3.19-3.311-4.966-7.964-7.062-12.753-7.388zm87.792 105.159c-.083-.795-.139-1.492-.235-2.185-.074-.536-.343-.967-.89-.86-.419.084-.575.506-.563.968.022.909.17 1.833.048 2.721-1.006 7.447-3.733 13.643-10.521 16.823-.436.204-.839.499-.621 1.097.207.567.703.576 1.156.438a8.9 8.9 0 0 0 3.257-1.781c5.146-4.419 7.788-10.273 8.369-17.224z"/><path fill="#C20000" d="M66.85 302.248c.419-.015.722.225 1.022.512 3.478 3.312 7.612 5.127 12.07 6.156 3.47.801 6.995 1.202 10.527.881a49 49 0 0 0 15.823-4.147c8.216-3.698 16.095-8.156 24.027-12.482 9.091-4.958 18.191-9.906 27.197-15.046 6.556-3.741 13.186-7.324 19.816-10.898a890 890 0 0 1 19.827-10.372c8.618-4.372 17.281-8.639 26.163-12.352 6.058-2.53 12.198-4.782 18.595-6.058 1.691-.336 3.404-.681 5.16-.57 1.578.102 3.15-.136 4.753-.071 5.434.225 10.475 1.787 15.349 4.305 4.249 2.193 8.219 4.939 12.422 7.222 7.236 3.932 14.863 6.591 22.778 8.215 2.747.563 5.563.899 8.392 1.066 2.175.129 4.353.382 6.531.299 7.128-.269 14.151-1.304 21.042-3.396 7.29-2.215 14.123-5.58 20.787-9.41 1.023-.589 2.014-1.239 3.025-1.849a3.2 3.2 0 0 1 1.657-.484c1.481-.012 1.892.312 2.396 1.843.487 1.473.342 3.029.609 4.542.855 4.88 2.064 9.638 3.568 14.321a129 129 0 0 0 7.519 18.389c3.455 6.893 7.335 13.471 12.651 18.913a23.8 23.8 0 0 0 3.988 3.284c1.736 1.14 3.619 1.365 5.551.546-.017 2.347-.734 3.241-2.77 3.364-1.648.102-3.175-.487-4.684-1.106-4.198-1.722-7.927-4.351-11.519-7.213-.883-.703-1.736-1.051-2.829-1.026-2.77.065-5.542.08-8.312.022-4.829-.102-9.66-.161-14.483-.447a876 876 0 0 1-23.113-1.68 609 609 0 0 1-19.785-2.067c-6.969-.832-13.925-1.784-20.878-2.767-6.887-.974-13.775-1.975-20.646-3.103-6.488-1.063-12.951-2.283-19.422-3.472-3.297-.607-6.582-1.294-9.875-1.938-.505-.099-1.031-.114-1.462-.527.272-.641.895-.721 1.377-.986 3.33-1.843 6.678-3.648 10.019-5.469.403-.219.813-.432 1.198-.681.337-.219.674-.512.505-1.002-.193-.564-.638-.668-1.116-.465-.419.179-.816.419-1.218.641-12.965 7.204-26.115 13.995-39.369 20.542-10.26 5.072-20.598 9.953-30.96 14.769-.802.372-1.343.345-2.068-.287-5.361-4.659-11.523-6.729-18.351-6.329-3.815.225-7.338 1.464-10.264 4.283-1.744 1.683-2.88 3.75-3.291 6.264-.325 2-.696 3.987-.974 5.996-.161 1.18-.045 2.364.201 3.547.32 1.544.286 1.602-1.068 2.175-2.458 1.042-4.936 2.034-7.411 3.029-9.544 3.827-19.117 7.564-28.885 10.67-.79.253-1.325.731-1.843 1.402-4.093 5.343-8.48 10.369-13.62 14.556-1.603 1.303-3.28 2.477-5.08 3.433-1.048.554-2.139.995-3.274 1.244-2.15.475-3.526-.668-3.705-3.038-.138-1.842.17-3.626.654-5.383a45 45 0 0 1 4.79-11.206c.677-1.125.56-1.803-.049-2.77a325 325 0 0 1-13.865-24.274c-1.83-3.543-3.594-7.127-5.373-10.701-.21-.422-.493-.835-.43-1.368z"/><path fill="#DAF305" d="M3.934 290.061c1.263-8.107 3.39-15.955 6.046-23.633 5.682-16.408 13.852-31.118 25.34-43.52 7.337-7.921 15.663-14.324 25.103-18.961 1.962-.965 1.66-1.036 3.095.591q13.006 14.694 26.007 29.392c.354.401.685.826.997 1.202-.043.376-.21.564-.436.724-9.91 7-17.93 16.139-25.075 26.267-3.376 4.785-6.26 9.931-9.335 14.938-.51-.132-.852.169-1.18.521-1.18 1.275-2.43 2.459-3.671 3.663-3.708 3.593-7.84 6.474-12.294 8.788-1.524.792-3.05 1.812-4.874 1.682-.04-.345-.063-.696-.122-1.038-.7-3.996-3.614-6.945-7.208-7.306-3.551-.357-6.791 1.837-8.272 5.51-.708 1.756-.445 3.558-.425 5.358-1.124-.194-2.254-.376-3.376-.589-3.591-.684-6.99-2.027-10.323-3.592zm19.009-30.298c.085 1.347.107 2.326.212 3.297.705 6.56 4.566 11.721 9.98 13.311 3.291.967 6.506.554 9.633-.807 8.586-3.738 14.55-14.528 13.548-24.623-.405-4.082-1.81-7.715-4.63-10.568-4.396-4.446-10.748-4.992-16.205-1.907-7.973 4.504-11.93 11.979-12.54 21.294zm39.295-23.103c4.322.034 7.774-3.648 7.802-8.319.029-4.607-3.511-8.486-7.726-8.471-4.171.016-7.632 3.738-7.697 8.28-.068 4.683 3.333 8.479 7.624 8.51zm307.901-111.129c-.309-2.921-.601-5.846-.932-8.767-.11-.976.111-1.691.824-2.384 2.49-2.413 3.857-5.362 3.509-9.118-.127-1.386.068-2.81-.056-4.2-.128-1.42.424-2.341 1.328-3.256 6.664-6.754 14.268-11.95 22.481-16.134 12.823-6.535 26.313-10.457 40.382-12.096 3.909-.457 7.825-.694 11.754-.82 1.076-.034 1.45.373 1.535 1.491.297 3.907.662 7.808.999 11.712q.883 10.247 1.762 20.493c.388 4.533.753 9.065 1.172 13.595.099 1.075-.371 1.164-1.13 1.05-2.945-.453-5.907-.437-8.87-.366-8.015.194-15.893 1.54-23.659 3.614-1.682.45-2.991.225-4.531-.613-6.548-3.559-13.359-4.579-20.357-1.649-3.39 1.418-5.877 3.947-7.191 7.734-.861 2.48-2.079 4.831-2.172 7.568-.02.566-.309.868-.742 1.115-1.422.813-2.764 1.793-4.279 2.403-.306-.496-.785-.351-1.218-.406-1.736-.222-3.328-.774-4.744-1.991-2.277-1.96-3.733-4.508-4.84-7.352-.241-.619-.261-1.395-1.02-1.627zm36.488-12.871c5.452-.222 10.706-2.643 14.954-7.496 1.713-1.957 2.942-4.234 3.495-6.902.849-4.101-.587-7.904-3.849-10.16a11.1 11.1 0 0 0-3.727-1.663c-7.695-1.873-17.166 2.49-21.281 9.808a14.7 14.7 0 0 0-1.166 2.64c-1.782 5.463.291 10.495 5.23 12.673 1.816.801 3.719 1.085 6.342 1.103zm-28.261-.046c-.017 2.992.745 5.269 2.113 6.751 1.792 1.944 4.18 2.018 6.024.191 3.036-3.007 3.044-9.684.014-12.701-1.957-1.947-4.557-1.802-6.293.388-1.317 1.661-1.835 3.642-1.861 5.371zm65.733-20.42c-.111-2.409-.689-4.584-2.368-6.251-2.13-2.114-4.917-1.984-6.868.299-2.707 3.167-2.396 9.148.623 11.955 2.034 1.892 4.718 1.775 6.602-.296 1.444-1.587 1.911-3.59 2.011-5.706m-77.522 110.338-.082-.807c.53-.41.3-.678-.144-.903-.791-4.764-1.082-9.583-1.561-14.658 2.15-.089 4.192-.295 6.228-.243 18.448.49 35.879 5.472 52.453 14.177 6.746 3.543 13.109 7.783 19.091 12.707 1.067.878 1.365 1.664 1.011 3.146-3.469 14.5-6.848 29.028-10.261 43.547-.139.585-.328 1.155-.49 1.719-.215-.043-.365-.028-.456-.102-8.25-6.886-17.712-11.055-27.488-14.522q-2.936-1.039-5.876-2.073c-.066-.697-.638-.817-1.065-1.088-5.01-3.192-9.57-7.01-13.611-11.555-.482-.542-1.122-.976-1.198-1.836 3.132 1.18 6.349 1.756 9.666 1.522 3.806-.268 7.326-1.439 10.342-4.076 4.54-3.972 5.752-10.202 3.099-15.844-.739-1.568-1.7-2.961-2.832-4.221-6.095-6.773-16.579-8.908-24.475-4.921-3.945 1.991-6.69 5.136-7.576 9.922-.606-.364-.796-1.051-1.099-1.655-1.195-2.379-1.999-4.939-2.942-7.435-.156-.41-.275-.773-.74-.81zm55.084 15.616c-.62-.065-1.303.089-1.985.32-5.359 1.815-7.644 9.333-4.297 14.238 1.334 1.954 3.113 3.082 5.401 3.149 4.829.145 8.737-4.729 8.159-10.186-.472-4.462-3.358-7.485-7.275-7.525zM325.53 92.8c-.342-.65-.181-1.365-.181-2.05.006-3.783.071-7.57.051-11.353-.04-8.126-.13-16.25-.17-24.376-.017-3.315-.326-2.74 2.461-3.312 10.921-2.253 21.773-2.123 32.464 1.522 3.09 1.053 6.01 2.526 8.502 4.834 2.342 2.166 3.665 4.795 3.036 8.4-1.841-.768-3.565-1.72-5.474-2.093-2.504-.49-4.996-.585-7.457.2-5.058 1.618-7.389 6.672-5.591 12.076a14.1 14.1 0 0 0 2.849 4.958c3.96 4.458 8.763 6.77 14.506 6.609 1.442-.04 1.464-.05 1.47 1.55.014 3.762.006 7.524.006 11.286-.266 0-.434.053-.484-.009-2.986-3.503-6.78-5.55-10.873-6.945-7.644-2.607-15.488-3.39-23.469-2.813-3.475.252-6.919.696-10.332 1.457-.419.093-.858.311-1.311.053zm21.317-22.3c.031-3.88-2.883-7.065-6.505-7.105-3.56-.04-6.633 3.176-6.672 6.982-.04 3.82 2.945 7.05 6.553 7.084 3.634.033 6.596-3.079 6.627-6.961zm-95.222 249.726c.436-.292.855-.616 1.308-.875 9.822-5.568 18.378-12.882 25.611-22.003.736-.93 1.399-1.245 2.472-.933 1.614.468 3.251.869 4.897 1.177.949.178 1.184.579.878 1.549-.674 2.142-.918 4.357-.855 6.619.186 6.652 4.324 11.12 10.436 11.28 3.928.105 7.468-1.254 10.807-3.358 3.444-2.169 6.369-4.995 8.751-8.455.666-.968 1.263-1.297 2.405-1.001 2.373.613 4.797 1.001 7.128 1.466.337.521.09.9-.077 1.254-4.695 9.836-11.13 18.139-18.853 25.303-.34.315-.747.536-1.127.801-.178-.385-.45-.372-.801-.302-3.784.761-7.593 1.085-11.448 1.107-2.512.012-4.97-.518-7.476-.527-.932-.003-1.881-.37-2.847-.404-.473-.015-.628-.404-.688-.85.349-.41.72-.801 1.04-1.236 1.704-2.329 1.891-5.5.495-8.07-1.996-3.669-6.647-5.293-10.535-3.676-3.69 1.535-5.163 4.764-4.339 9.515-.357.703-.847.385-1.328.216-2.308-.814-4.546-1.824-6.757-2.903-3.209-1.565-6.174-3.589-9.1-5.694zm-64.083-279.55c.68-4.154 1.326-8.135 1.989-12.113.733-4.409 1.518-8.806 2.192-13.227.189-1.239.671-1.778 1.804-1.95 3.517-.54 7.052-.752 10.594-.722 12.527.114 24.699 2.589 36.611 6.684 4.044 1.39 8.097 2.807 11.849 5.022.824.487 2.085.872 2.008 2.021-.091 1.362-1.458 1.609-2.472 1.966-2.583.912-5.293 1.146-7.956 1.605-4.701.814-9.419 1.526-14.12 2.351-.816.142-1.459.053-2.195-.357-6.993-3.873-13.438-2.672-18.76 3.472-.501.577-.994 1.057-1.739 1.214-6.315 1.331-12.628 2.684-18.944 4.021-.184.04-.382.007-.861.007z"/><path fill="#C20000" d="M388.425 157.697c-1.023-.265-1.572.216-1.368 1.31.696 3.715.971 7.475 1.218 11.246.297 4.539.617 9.077.535 13.634-.009.484-.116.968-.184 1.452-.091.625-.453.779-.98.665-3.475-.77-7.015-.952-10.521-1.448-.935-.132-2.161.444-2.736-.459-.448-.703-.289-1.886-.346-2.856a136 136 0 0 1-.15-3.987c-.158-5.744-.311-11.484-.467-17.228-.048-1.811-.306-2.19-2.016-2.363-1.796-.182-3.592-.095-5.393.166-3.259.475-3.296.426-3.636-3.115-.235-2.437-.232-4.893-.397-7.339-.305-4.539-.322-9.099-.56-13.644-.21-3.987-.318-7.977-.403-11.967-.028-1.279.349-1.951 1.417-2.333 1.77-.628 3.307-1.805 5.114-2.717.609 2.585.578 5.114.839 7.595.538 5.145.968 10.303 1.433 15.455.189 2.089.359 4.181.529 6.274.045.564.04 1.158.657 1.377.516.182.827-.228 1.178-.536.68-.595 1.213-1.408 2.184-1.846.207.971.122 1.775.037 2.598-.082.813-.377 1.836.427 2.304.72.419 1.3-.394 1.838-.856a70.5 70.5 0 0 1 8.488-6.215c.671-.419 1.326-.866 2.09-1.066.289 2.884.771 5.765.805 8.652.028 2.428.634 4.81.365 7.241z"/><path fill="#A3BA00" d="M33.66 291.72c1.823.132 3.35-.891 4.873-1.682 4.455-2.314 8.587-5.195 12.294-8.788 1.24-1.202 2.492-2.385 3.67-3.664.326-.354.672-.656 1.181-.52-.118 1.013-.739 1.771-1.163 2.622-4.753 9.524-8.638 19.415-10.686 30.076-.54 2.813-.966 5.644-1.079 8.525-.08 2.006-.1 2.012-1.886 1.196Q30.8 314.89 20.739 310.29c-5.757-2.631-11.51-5.281-17.287-7.863-.932-.416-1.32-.915-1.147-2.021.541-3.448.827-6.945 1.629-10.344 3.333 1.565 6.731 2.909 10.323 3.593 1.121.213 2.251.394 3.375.588.286.703.533 1.427.864 2.102 1.98 4.005 6.426 5.7 10.25 3.858 3.355-1.618 4.882-4.551 4.913-8.483m248.5 40.355c.057.447.216.835.689.851.965.034 1.911.4 2.846.403 2.503.009 4.962.539 7.476.527 3.855-.018 7.664-.345 11.448-1.106.351-.071.623-.083.801.302-.073.373-.342.579-.589.798-6.001 5.263-12.436 9.724-19.72 12.611-1.758.697-3.568 1.181-5.389 1.64-1.045.262-1.994.111-2.979-.413-13.243-7.044-26.5-14.054-39.754-21.073-.289-.154-.587-.292-.739-.631.107-.284.325-.41.583-.459 4.987-.94 9.68-2.841 14.251-5.143.17-.086.368-.102.555-.151 2.923 2.104 5.891 4.129 9.1 5.694 2.211 1.079 4.449 2.089 6.757 2.903.481.169.971.486 1.328-.216.96 2.138 2.373 3.793 4.435 4.668 3.155 1.34 6.132.927 8.904-1.202z"/><path fill="#FA420F" d="M388.427 157.7c.27-2.434-.337-4.813-.365-7.241-.034-2.887-.515-5.768-.804-8.652 1.504-.933 1.512-.94 2.444.354.833 1.156 1.742 2.241 2.639 3.119.119.499-.09.696-.26.881-2.155 2.329-1.83 4.81-.669 7.105 1.014 2.003 2.529 3.522 4.217 4.844 3.946 3.084 8.375 4.871 13.13 5.771 2.008.379 2.005.348 2.124 2.607.43 8.039.918 16.078.872 24.135-.003.675.184 1.383-.209 2.141-2.124-.761-4.243-1.565-6.384-2.28-4.429-1.482-8.912-2.736-13.464-3.706-1.67-.358-1.687-.395-1.634-2.086.261-8.002-.263-15.955-1.175-23.886-.119-1.038-.309-2.068-.464-3.103z"/><path fill="#A8CCD8" d="M411.126 145.497c-6.539-.262-12.336-2.508-17.072-7.586a14.8 14.8 0 0 1-3.004-4.841c-1.714-4.461-.606-8.849 2.951-11.754 2.223-1.815 4.772-2.78 7.496-3.066 8.089-.851 15.126 1.617 20.833 8.079.898 1.016 1.589 2.194 2.158 3.463 2.716 6.058-.085 11.043-4.05 13.406-2.906 1.732-6.032 2.342-9.312 2.302zm-6.706-24.123c-3.297.102-6.565.678-9.372 2.973-1.098.9-1.965 2.006-2.432 3.445-.148.45-.114.841.291 1.073.42.237.734.012.963-.383.068-.117.116-.249.173-.372 1.037-2.194 2.759-3.467 4.854-4.179 5.027-1.7 9.938-1.103 14.662 1.208 3.243 1.584 6.044 3.772 6.905 7.894.028.133.096.259.158.379.139.281.397.392.646.333a.655.655 0 0 0 .512-.558c.105-.643-.042-1.247-.235-1.848-.725-2.268-2.124-3.975-3.848-5.389-3.9-3.199-8.378-4.453-13.283-4.582zm13.036 15.104c-1.425-.237-2.713.604-3.974 1.439-.719.475-1.424 1.226-1.152 2.2.277.992 1.104 1.458 2.132 1.433 1.516-.034 2.892-.536 4.183-1.356.861-.545 1.637-1.214 1.518-2.437-.085-.891-.954-1.282-2.707-1.282zm-9.207 5.525c1.164 0 1.982-.755 1.94-1.79-.04-.965-.81-1.627-1.889-1.618-1.159.006-1.991.777-1.946 1.803.043.955.813 1.608 1.895 1.608zM163.36 305.995c5.407.216 11.377 2.533 16.219 7.811a14.26 14.26 0 0 1 3.271 5.863c1.187 4.243-.104 8.36-3.449 10.902-2.101 1.596-4.461 2.496-6.99 2.797-6.465.78-12.381-.881-17.717-4.929-2.195-1.664-3.951-3.775-5.248-6.335-2.56-5.054-1.32-10.446 3.161-13.518 2.869-1.966 6.063-2.607 10.75-2.591zm17.449 17.769c-.006-1.845-.808-4.172-2.113-5.971-3.396-4.684-7.967-7.182-13.237-8.322-2.818-.611-5.631-.567-8.383.465-1.232.462-2.354 1.137-3.26 2.172-.379.435-1.003.918-.484 1.587.572.742 1.042.031 1.419-.373 1.192-1.285 2.656-1.91 4.256-2.289 2.184-.518 4.359-.401 6.511.101 4.721 1.097 8.85 3.359 11.94 7.528 1.161 1.565 1.827 3.349 1.864 5.398.011.666-.459 1.784.651 1.759.915-.021.734-1.115.833-1.839.008-.068 0-.139 0-.209zm-25.053-6.396c-1.736-.296-3.26 1.488-2.413 3.503 1.263 3.014 3.314 4.921 6.208 5.688 1.841.487 3.186-1.43 2.504-3.402-.388-1.121-.963-2.147-1.714-2.998-1.257-1.426-2.739-2.489-4.585-2.794zM119.051 62.19c.094 1.716-.215 3.506-.781 5.226-2.92 8.877-8.321 14.975-16.803 17.532-1.818.548-3.713.533-5.548.07-3.597-.905-6.117-4.017-6.675-8.053-.383-2.758-.14-5.464.744-8.058 2.898-8.516 8.137-14.457 16.251-17.107 1.538-.502 3.141-.684 4.769-.428 4.846.764 7.936 4.53 8.04 9.847.006.28 0 .561 0 .971zm-10.586-7.432c-.346.04-.929.052-1.493.182-.688.157-1.399.32-2.033.638-7.556 3.808-11.923 10.208-12.906 19.211-.246 2.265.323 4.459 1.668 6.314.318.437.706.967 1.278.536.586-.444.26-.968-.068-1.44-1.518-2.178-1.674-4.649-1.227-7.206.824-4.702 2.968-8.652 6.149-11.884 3.033-3.085 6.372-5.525 10.886-4.48.374.086.81.086.943-.444.156-.614-.235-.89-.679-1.073-.737-.299-1.513-.317-2.518-.354m.884 14.547c0 .419-.017.84.002 1.257.049.942.238 1.885 1.091 2.295.946.453 1.557-.342 2.132-1.004 1.745-2.006 2.473-4.527 2.988-7.143.283-1.43.601-2.853.057-4.316-.507-1.368-1.473-1.76-2.543-.9-.408.327-.799.736-1.071 1.199-1.555 2.622-2.591 5.444-2.659 8.612zm-1.714 4.908c-1.187-.068-2.642 1.063-2.877 2.32-.128.678-.224 1.427.328 1.975.541.536 1.195.453 1.821.219a3.45 3.45 0 0 0 1.895-1.713c.682-1.371.091-2.73-1.164-2.801z"/><path fill="#A3BA00" d="M366.584 202.527c.464.04.583.4.739.81.943 2.496 1.747 5.056 2.942 7.435.303.604.496 1.291 1.099 1.655-.634 4.461.802 8.208 3.416 11.514 2.265 2.863 5.154 4.742 8.357 6.098.077.86.717 1.294 1.198 1.836 4.039 4.542 8.601 8.363 13.611 11.555.425.271 1 .391 1.065 1.088-3.005-.709-6.004-1.436-9.012-2.12-5.539-1.264-11.127-2.136-16.783-2.435-1.733-.092-1.733-.104-2.044-1.987-1.85-11.142-3.274-22.351-4.574-33.579-.071-.619-.193-1.248-.011-1.87zm-51.65 101.122c-.102.308-.122.533-.229.681-3.866 5.294-8.601 9.204-14.758 10.766-1.895.481-3.846.533-5.744.043-4.718-1.22-6.876-5.167-6.848-10.498.009-1.673.337-3.334.81-4.939.4-1.362.482-1.439 1.784-1.174 2.589.527 5.163 1.134 7.752 1.652 5.117 1.02 10.241 1.996 15.361 3.001.612.12 1.215.305 1.872.474zm57.053-226.055c0 2.518-.034 5.035.017 7.552.02.98-.289 1.32-1.183 1.433-1.762.228-3.461-.034-5.141-.52-3.84-1.12-7.077-3.273-9.493-6.764a12.5 12.5 0 0 1-1.855-4.12c-.875-3.53.453-6.809 3.475-8.427 2.725-1.454 5.579-1.473 8.471-.742 1.507.382 2.928 1.026 4.324 1.756.921.484 1.323 1.11 1.283 2.277-.087 2.514-.025 5.035-.025 7.552h.13z"/><path fill="#C20000" d="M372.978 48.872c.969 4.188 1.988 8.366 2.9 12.569 1.745 8.057 3.401 16.136 4.568 24.323.196 1.371.493 2.727.742 4.092-2.424 2.243-5.021 4.249-7.298 6.661-.561-.554-.394-1.072-.394-1.525-.039-10.143-.065-20.29-.102-30.433-.008-2.422-.895-4.468-2.362-6.252-1.747-2.126-3.911-3.602-6.253-4.819-1.498-.78-1.467-.804-1.155-2.527.371-2.061.858-4.088 1.512-6.063.215-.654.51-1.288.83-1.89 1.042-1.956 2.113-2.042 3.364-.203.96 1.409 1.657 2.99 2.252 4.622.252.69.442 1.532 1.399 1.452z"/><path fill="#A3BA00" d="M360.903 96.195c.169-.015.379-.098.54-.034 3.056 1.18 5.939 2.696 8.245 5.257 2.976 3.309 3.14 6.951.405 10.494-2.161 2.801-5.036 4.527-8.075 5.935-.903.419-1.138.24-1.181-.891-.065-1.747-.042-3.497-.053-5.247-.029-4.689-.06-9.376-.077-14.066 0-.474-.096-.976.196-1.448"/><path fill="#DAF305" d="M363.571 170.121c-.266-3.062-.518-6.125-.802-9.185-.085-.903.264-1.192 1.06-1.331 2.299-.394 4.607-.441 6.924-.434.731 0 1.172.163 1.198 1.149.19 7.481.428 14.962.651 22.444-.818.175-1.28-.441-1.801-.949-3.005-2.924-5.103-6.508-6.522-10.588-.153-.437-.133-.995-.708-1.112zm11.409 74.484c.3-.363.677-.678.886-1.094.745-1.466 1.853-1.636 3.246-1.368 4.361.841 8.434 2.416 12.093 5.189.878.666 1.323 1.269.912 2.57-.688 2.172-1.136 4.431-1.719 6.797-2.626-.857-5.126-1.676-7.63-2.493-.535-1.636-2.067-2.147-3.104-3.217-1.843-1.898-3.764-3.697-4.684-6.384"/><path fill="#C20000" d="M387.386 257.512c.025 2.249-.672 4.366-1.011 6.551-.054.342-.08.687-.117 1.029-.668.36-.725 1.075-.895 1.75-.438 1.75-.906 3.497-1.784 5.062-.985 1.76-1.923 1.843-3.132.256-.782-1.026-1.348-2.206-1.846-3.42-1.62-3.963-2.733-8.11-3.747-12.294-.298-1.224-.21-1.365.914-1.356 4.005.034 7.885.81 11.615 2.419zM378.642 31.84c-3.521-.435-5.191-3.575-5.217-6.428-.028-3.417.748-6.637 1.858-9.774 1.065-3.007 1.727-6.125 2.37-9.252.264-1.285-.526-2.453-.305-3.729 1.316.496 1.736 1.809 2.175 3.02.521 1.43.795 2.96.852 4.502.153 4.264.133 8.528-.459 12.765-.416 2.967-.849 5.935-1.277 8.902z"/><path fill="#A8CCD8" d="M147.471 322.023c3.424 6.702 8.819 10.47 15.437 12.282 6.576 1.803 12.912 1.387 18.703-3.155-.297 1.895-1.325 3.241-2.656 4.348-1.719 1.426-3.673 2.375-5.783 2.779-8.358 1.602-15.707-.712-21.878-7.072-2.353-2.424-3.837-5.416-3.82-9.182zm-26.715-262.12c1.66 2.797 1.821 5.79 1.357 8.91-1.419 9.55-9.805 18.805-18.443 20.312-2.43.422-4.746.08-6.91-1.239-.312-.19-.714-.326-.83-1.029 7.112.82 12.762-2.41 17.514-7.712 4.755-5.306 7.573-11.586 7.312-19.242m268.073 72.232c4.401 12.74 19.618 17.159 28.771 14.127.923-.305 1.815-.69 2.688-1.143.49-.256.943-.758 1.679-.521-.139 1.008-.847 1.525-1.447 2.077-2.39 2.197-5.237 3.284-8.292 3.602-6.605.684-12.632-1.085-17.95-5.451-1.971-1.618-3.6-3.583-4.696-6.03-.949-2.12-1.328-4.314-.756-6.661z"/><path fill="#A3BA00" d="M370.13 125.529c.759.234.778 1.007 1.019 1.627 1.105 2.844 2.563 5.395 4.84 7.351 1.416 1.221 3.008 1.769 4.744 1.991.433.055.912-.086 1.218.407-.323.662-.969.878-1.496 1.241a85 85 0 0 0-7.213 5.58c-.391.339-.699.835-1.402.842-.487-1.784-.399-3.676-.6-5.516-.448-4.085-.77-8.187-1.13-12.282-.037-.409.011-.828.022-1.244z"/><path fill="#C20000" d="M29.318 70.025c-.524 5.873 1.793 10.846 4.246 15.76.852 1.71 1.835 3.344 2.772 5.001 1 1.77 1.198 3.596.442 5.534-.297.761-.518 1.56-.773 2.339-3.367-6.049-6.18-12.359-7.593-19.31-.47-2.308-.884-4.656-.23-7.016.236-.841.295-1.812 1.136-2.308"/><path fill="#A3BA00" d="M363.582 170.122c.572.117.555.674.708 1.112 1.419 4.079 3.52 7.66 6.522 10.587.521.508.983 1.125 1.802.949-.02 1.575-.02 1.581-1.19 1.605-1.926.04-3.852.074-5.775.114-.546.013-1.016-.043-1.081-.825-.371-4.508-.893-9.004-.986-13.536zm11.395 74.482c.923 2.687 2.84 4.486 4.684 6.384 1.037 1.066 2.569 1.581 3.104 3.217-1.518-.173-3.033-.348-4.551-.512-.7-.077-1.399-.184-2.099-.188-2.342-.006-1.948-.024-2.435-2.215-.283-1.282-.479-2.591-.824-3.855-.269-.992-.043-1.565.832-1.95.462-.203.861-.579 1.289-.878zM226.146 32.985l-15.22 2.903c3.631-4.597 9.856-5.842 15.22-2.903m149.205 208.784c-.838 1.235-1.566 2.058-2.571 2.496-.672-.09-.598-.7-.691-1.106-.374-1.615-.27-1.72 1.311-1.569.563.056 1.124.105 1.951.182zm-8.996-40.948c.445.225.674.493.145.903-.312-.25-.295-.564-.145-.903"/><path fill="#C20000" d="M66.36 301.462c.396.09.501.392.484.783-.343-.126-.405-.462-.484-.783"/><path fill="#A8CCD8" d="m181.91 330.732-.096.042.022-.12z"/><path fill="#0E0A06" d="M73.625 155.015c.302-6.422 2.489-11.903 7.102-16.109 1.702-1.553 3.648-2.604 5.857-3.026.38-.071.762-.148 1.144-.16.425-.015.762.203.822.696.053.469-.145.808-.598.912a2 2 0 0 1-.19.037c-6.814 1.227-10.062 6.394-11.988 12.954-.609 2.074-.753 4.243-.521 6.433.068.638.346 1.6-.572 1.707-.898.105-.833-.844-.9-1.519-.063-.625-.1-1.254-.15-1.922zm158.48-30.854c4.786.326 9.439 2.422 12.753 7.389.645.967 1.147 2.024 1.427 3.189.122.502.133 1.035-.408 1.229-.549.197-.844-.253-.994-.736-1.076-3.454-3.308-5.781-6.196-7.417-3.045-1.722-6.282-2.409-9.712-1.861-1.348.216-2.633.622-3.831 1.334-.524.311-1.139.672-1.473-.148-.317-.773.334-1.09.85-1.368 2.172-1.18 4.488-1.664 7.584-1.617zm87.796 105.159c-.58 6.951-3.222 12.805-8.368 17.224a9 9 0 0 1-3.257 1.781c-.453.135-.949.126-1.156-.438-.218-.598.184-.89.62-1.097 6.789-3.177 9.519-9.373 10.522-16.823.119-.885-.029-1.812-.049-2.721-.011-.462.148-.884.564-.968.547-.107.816.324.889.86.097.69.15 1.39.235 2.185zM22.94 259.766c.612-9.318 4.569-16.79 12.54-21.294 5.458-3.085 11.81-2.539 16.206 1.907 2.82 2.853 4.225 6.486 4.63 10.569 1 10.094-4.961 20.884-13.548 24.622-3.13 1.362-6.341 1.774-9.632.807-5.415-1.59-9.278-6.751-9.98-13.311-.105-.971-.128-1.953-.213-3.297zm31.986-6.52c-.06-.977-.054-1.966-.198-2.93a21.5 21.5 0 0 0-.694-3.054c-2.02-6.615-7.975-10.248-14.231-8.704-9.864 2.428-17.103 14.67-14.996 25.448 1.022 5.229 3.616 9.096 8.488 10.729 3.299 1.106 6.542.628 9.58-.999 7.786-4.169 11.448-11.271 12.054-20.487zM33.65 291.723c-.028 3.932-1.554 6.865-4.913 8.483-3.826 1.842-8.27.148-10.25-3.858-.334-.675-.577-1.399-.863-2.101-.02-1.8-.284-3.602.425-5.359 1.483-3.672 4.72-5.866 8.272-5.509 3.591.361 6.505 3.313 7.208 7.306.06.342.082.69.121 1.038m-1.54.502c.042-3.974-2.75-7.136-6.372-7.222-3.778-.089-6.763 3.118-6.763 7.272 0 3.805 3.055 7.065 6.607 7.056 3.585-.01 6.485-3.168 6.525-7.106zm30.13-55.562c-4.29-.033-7.692-3.83-7.624-8.51.065-4.542 3.526-8.264 7.697-8.279 4.217-.016 7.757 3.864 7.726 8.47-.028 4.674-3.48 8.353-7.802 8.319zm.19-1.636c3.395-.034 6.074-2.967 6.105-6.68.029-3.722-2.798-6.831-6.216-6.834-3.364-.003-6.293 3.217-6.228 6.847.071 3.796 2.832 6.704 6.338 6.667m344.185-122.371c-2.626-.019-4.526-.302-6.341-1.104-4.939-2.178-7.013-7.213-5.231-12.673a14.7 14.7 0 0 1 1.167-2.64c4.115-7.315 13.585-11.678 21.28-9.808 1.331.324 2.577.87 3.727 1.664 3.262 2.255 4.698 6.058 3.849 10.159-.553 2.671-1.785 4.948-3.495 6.902-4.248 4.853-9.502 7.275-14.953 7.496zm-.241-1.658c4.88-.16 9.315-2.16 13.093-5.858 1.948-1.907 3.412-4.193 4.064-7.01.852-3.69-.487-7.058-3.546-8.923-.847-.517-1.742-.915-2.696-1.121-6.423-1.39-11.946.742-16.831 5.207a14.5 14.5 0 0 0-3.911 5.916c-1.654 4.665.045 8.923 4.304 10.806 1.703.752 3.481.983 5.523.986zm-28.006 1.61c.026-1.729.544-3.71 1.861-5.371 1.736-2.188 4.336-2.335 6.293-.388 3.027 3.013 3.019 9.69-.014 12.701-1.844 1.827-4.232 1.75-6.024-.191-1.368-1.482-2.13-3.759-2.113-6.751zm1.462.477c.045 1.787.359 3.488 1.478 4.884 1.373 1.713 3.07 1.719 4.494.052 2.048-2.403 2.034-7.318-.034-9.705-1.438-1.667-3.106-1.649-4.491.086-1.068 1.337-1.385 2.97-1.447 4.686zm64.259-20.893c-.099 2.12-.563 4.12-2.01 5.706-1.884 2.07-4.568 2.188-6.602.296-3.019-2.807-3.33-8.788-.623-11.955 1.951-2.284 4.741-2.416 6.868-.3 1.676 1.668 2.257 3.843 2.367 6.253m-1.461-.006c-.09-1.726-.476-3.405-1.631-4.758-1.603-1.873-3.889-1.738-5.324.284-1.742 2.45-1.518 6.75.464 8.935 1.64 1.806 3.973 1.618 5.33-.444.773-1.177 1.065-2.53 1.161-4.014zm-59.494 137.855c-3.203-1.356-6.095-3.235-8.358-6.098-2.617-3.309-4.052-7.053-3.415-11.514.886-4.789 3.631-7.931 7.576-9.922 7.895-3.987 18.38-1.852 24.474 4.921a17.3 17.3 0 0 1 2.832 4.221c2.654 5.642 1.445 11.872-3.098 15.844-3.016 2.637-6.539 3.808-10.343 4.076-3.316.234-6.533-.345-9.665-1.522zm8.156-.071c3.781.052 7.281-.924 10.374-3.322 4.534-3.518 5.729-9.36 3.042-14.669-.813-1.609-1.858-3.029-3.141-4.221-4.424-4.111-9.635-5.799-15.358-5.559-3.255.136-6.33 1.165-9.021 3.291-4.636 3.666-5.777 9.693-2.837 15.039a15.2 15.2 0 0 0 2.401 3.269c4.076 4.212 8.992 6.067 14.537 6.172zm30.371-11.822c3.916.041 6.802 3.06 7.275 7.525.578 5.454-3.328 10.328-8.159 10.186-2.288-.067-4.067-1.195-5.401-3.149-3.347-4.905-1.062-12.423 4.296-14.238.686-.231 1.365-.385 1.986-.32zm1.13 1.643c-5.71.037-8.839 5.78-6.854 10.701 1.436 3.556 5.185 4.828 8.227 2.791 3.132-2.098 4.279-6.834 2.458-10.312-1.062-2.031-2.665-3.156-3.834-3.177zM346.845 70.498c-.031 3.883-2.993 6.995-6.627 6.96-3.605-.033-6.593-3.262-6.553-7.083.04-3.808 3.115-7.022 6.672-6.982 3.623.04 6.537 3.226 6.506 7.105zm-1.481-.021c.026-2.974-2.274-5.466-5.041-5.46-2.77.006-5.126 2.468-5.157 5.386-.031 2.908 2.339 5.46 5.075 5.466 2.804.006 5.095-2.41 5.123-5.392m-63.205 261.6c-2.769 2.129-5.749 2.542-8.904 1.202-2.064-.876-3.475-2.53-4.435-4.669-.824-4.751.649-7.98 4.339-9.514 3.886-1.618 8.539.006 10.535 3.676 1.4 2.569 1.21 5.74-.495 8.069-.32.438-.691.826-1.04 1.236m-5.344.376c1.071-.077 2.141-.305 3.135-.832 3.844-2.037 4.28-7.139.859-9.946-2.391-1.963-5.877-2.129-8.344-.401-2.871 2.012-3.342 5.959-1.028 8.689 1.439 1.698 3.285 2.367 5.378 2.493zm127.608-211.081c4.908.13 9.383 1.384 13.283 4.582 1.722 1.414 3.121 3.121 3.849 5.389.192.601.34 1.205.235 1.849a.66.66 0 0 1-.513.558c-.252.055-.507-.056-.646-.333-.062-.123-.13-.247-.158-.379-.861-4.123-3.662-6.311-6.905-7.894-4.724-2.308-9.634-2.909-14.661-1.208-2.099.709-3.818 1.984-4.855 4.178-.059.123-.104.256-.172.373-.23.394-.544.619-.963.382-.408-.231-.439-.622-.292-1.072.467-1.439 1.334-2.545 2.433-3.445 2.806-2.299 6.075-2.872 9.371-2.974z"/><path fill="#fff" d="M417.454 136.483c1.75 0 2.622.388 2.707 1.282.119 1.223-.657 1.889-1.518 2.437-1.291.82-2.665 1.322-4.183 1.356-1.025.025-1.852-.441-2.132-1.433-.272-.973.433-1.725 1.152-2.2 1.261-.835 2.549-1.676 3.974-1.439zm-9.215 5.521c-1.085 0-1.852-.653-1.895-1.608-.045-1.023.785-1.793 1.946-1.803 1.079-.006 1.849.654 1.889 1.618.042 1.035-.776 1.79-1.94 1.79z"/><path fill="#0E0A06" d="M180.814 323.763c0 .071.009.142 0 .21-.096.724.082 1.818-.832 1.839-1.113.025-.64-1.094-.652-1.759-.037-2.049-.702-3.833-1.863-5.398-3.09-4.169-7.219-6.431-11.94-7.528-2.156-.502-4.328-.616-6.511-.101-1.603.379-3.067 1.004-4.257 2.289-.377.404-.844 1.115-1.419.373-.515-.669.105-1.15.485-1.587.906-1.035 2.027-1.713 3.259-2.172 2.753-1.03 5.565-1.076 8.383-.466 5.268 1.14 9.842 3.642 13.237 8.323 1.306 1.802 2.107 4.126 2.113 5.971z"/><path fill="#fff" d="M155.762 317.363c1.85.302 3.331 1.365 4.585 2.794.751.854 1.326 1.877 1.714 2.998.68 1.972-.663 3.889-2.504 3.402-2.894-.767-4.942-2.674-6.208-5.688-.846-2.015.677-3.802 2.413-3.503z"/><path fill="#0E0A06" d="M108.463 54.754c1.008.037 1.784.056 2.518.355.447.181.835.456.68 1.072-.133.53-.57.53-.943.444-4.512-1.042-7.851 1.395-10.887 4.48-3.18 3.232-5.324 7.182-6.148 11.884-.448 2.557-.292 5.029 1.226 7.207.328.472.654.995.068 1.439-.572.431-.96-.099-1.277-.536a8.94 8.94 0 0 1-1.669-6.314c.983-9.003 5.347-15.403 12.906-19.211.635-.32 1.343-.48 2.034-.638.563-.13 1.15-.145 1.492-.182"/><path fill="#fff" d="M109.345 69.299c.068-3.168 1.105-5.99 2.66-8.612.271-.46.662-.869 1.07-1.199 1.068-.86 2.036-.465 2.543.9.544 1.464.224 2.887-.056 4.317-.516 2.616-1.244 5.136-2.988 7.142-.578.663-1.187 1.458-2.133 1.005-.852-.41-1.042-1.353-1.09-2.296-.02-.419-.003-.838-.003-1.257zm-1.712 4.914c1.254.07 1.846 1.43 1.164 2.8a3.44 3.44 0 0 1-1.895 1.714c-.626.237-1.28.32-1.821-.219-.552-.548-.453-1.297-.328-1.975.235-1.257 1.69-2.388 2.877-2.32z"/><path fill="#A3BA00" d="M54.929 253.251c-.606 9.216-4.268 16.319-12.053 20.487-3.036 1.627-6.282 2.105-9.581.999-4.874-1.633-7.466-5.5-8.488-10.729-2.107-10.778 5.132-23.02 14.996-25.448 6.259-1.54 12.215 2.089 14.231 8.705.303.992.541 2.021.694 3.053.144.961.139 1.951.198 2.93zm-22.828 38.972c-.04 3.938-2.942 7.097-6.525 7.106-3.554.009-6.607-3.251-6.607-7.056 0-4.154 2.985-7.361 6.763-7.272 3.622.086 6.412 3.248 6.372 7.222zm30.314-57.193c-3.506.034-6.27-2.871-6.338-6.667-.068-3.63 2.86-6.85 6.228-6.847 3.418.003 6.244 3.112 6.216 6.834-.028 3.713-2.71 6.65-6.106 6.68M406.383 111c-2.042 0-3.817-.231-5.522-.986-4.26-1.882-5.959-6.14-4.305-10.805a14.5 14.5 0 0 1 3.911-5.916c4.883-4.465 10.405-6.597 16.831-5.208.954.207 1.849.604 2.696 1.122 3.059 1.864 4.401 5.229 3.546 8.923-.651 2.816-2.116 5.106-4.064 7.01-3.778 3.697-8.213 5.697-13.093 5.857zm-26.571 2.085c.059-1.716.377-3.349 1.444-4.686 1.385-1.735 3.053-1.75 4.492-.087 2.065 2.391 2.082 7.303.034 9.706-1.422 1.67-3.121 1.661-4.494-.052-1.119-1.396-1.431-3.097-1.476-4.884zm62.823-20.901c-.094 1.485-.385 2.837-1.161 4.014-1.357 2.062-3.691 2.253-5.33.444-1.983-2.184-2.207-6.486-.465-8.935 1.436-2.022 3.722-2.154 5.324-.284 1.156 1.35 1.541 3.032 1.632 4.757zm-51.35 137.789c-5.543-.108-10.462-1.96-14.537-6.172a15.2 15.2 0 0 1-2.402-3.269c-2.94-5.346-1.798-11.376 2.838-15.04 2.69-2.126 5.766-3.155 9.02-3.29 5.724-.241 10.932 1.448 15.358 5.558 1.283 1.192 2.326 2.613 3.141 4.221 2.688 5.309 1.493 11.151-3.041 14.67-3.093 2.4-6.593 3.377-10.374 3.322zm31.508-10.183c1.169.022 2.772 1.146 3.834 3.177 1.821 3.479.674 8.214-2.458 10.313-3.042 2.036-6.791.764-8.227-2.792-1.986-4.921 1.144-10.664 6.853-10.701zm-77.43-149.31c-.025 2.985-2.319 5.397-5.123 5.391-2.736-.006-5.106-2.557-5.075-5.466.031-2.918 2.387-5.38 5.157-5.386 2.764-.006 5.067 2.487 5.041 5.46m-68.562 261.975c-2.093-.126-3.939-.792-5.378-2.493-2.314-2.73-1.844-6.677 1.028-8.689 2.467-1.728 5.956-1.559 8.343.401 3.422 2.807 2.985 7.912-.858 9.946-.994.527-2.064.755-3.135.832z"/></svg>